<svg width="55" height="122" fill="none" xmlns="http://www.w3.org/2000/svg"><path d="M24.465 7.888l.31-.392-.31.392zm-16.4 113.945l5.574-1.508-4.092-4.072-1.481 5.58zM9.006.399a.5.5 0 00-.294.956L9.005.4zm15.15 7.881c5.043 3.995 7.68 7.469 8.655 10.506.964 3.001.326 5.64-1.349 8.051-1.69 2.434-4.43 4.626-7.638 6.662-3.202 2.033-6.82 3.882-10.24 5.652-3.403 1.762-6.623 3.452-8.97 5.152-1.173.851-2.155 1.722-2.835 2.628-.682.909-1.083 1.882-1.035 2.918.048 1.037.542 2.053 1.477 3.055.931.998 2.323 2.007 4.23 3.047 3.812 2.08 9.782 4.334 18.527 6.862l.277-.96c-8.726-2.523-14.61-4.754-18.325-6.78-1.86-1.013-3.15-1.962-3.98-2.852-.827-.886-1.175-1.687-1.209-2.419-.034-.733.243-1.482.836-2.27.595-.793 1.487-1.596 2.623-2.419 2.273-1.647 5.421-3.303 8.842-5.074 3.406-1.763 7.069-3.634 10.316-5.696 3.243-2.058 6.119-4.336 7.924-6.936 1.82-2.622 2.554-5.58 1.48-8.927-1.064-3.312-3.879-6.938-8.988-10.984l-.62.784zm.822 54.533c8.083 2.336 14.176 4.737 18.625 7.17 4.453 2.434 7.223 4.883 8.706 7.297 1.47 2.394 1.694 4.784.997 7.181-.703 2.42-2.353 4.872-4.678 7.33-4.651 4.917-11.867 9.72-19.05 14.211-7.15 4.47-14.285 8.64-18.654 12.254l.637.771c4.302-3.559 11.34-7.672 18.547-12.177 7.172-4.484 14.495-9.349 19.247-14.372 2.377-2.514 4.145-5.102 4.911-7.737.773-2.659.517-5.341-1.105-7.984-1.61-2.622-4.547-5.175-9.078-7.652-4.536-2.48-10.705-4.905-18.828-7.253l-.277.96zm-.202-55.317c-1.837-1.455-4.728-2.902-7.66-4.142A88.993 88.993 0 009.006.4l-.294.956a87.994 87.994 0 018.015 2.92c2.918 1.234 5.703 2.64 7.428 4.005l.621-.784z" fill="#475658"/></svg>