<svg width="24" height="24" fill="none" xmlns="http://www.w3.org/2000/svg"><path d="M18.558 24c-.234 0-.466-.027-.695-.078A23.388 23.388 0 016.32 17.706 23.384 23.384 0 01.068 6.163a3.324 3.324 0 01.08-1.645 3.261 3.261 0 01.857-1.395L3.784.388a1.384 1.384 0 011.07-.383 1.389 1.389 0 011.007.618l3.473 5.25a1.156 1.156 0 01-.077 1.349l-1.743 2.13a13.453 13.453 0 002.896 4.185 13.364 13.364 0 004.216 2.905l2.16-1.755a1.124 1.124 0 011.293-.085l5.244 3.467c.18.11.333.26.448.439a1.44 1.44 0 01.159 1.227 1.434 1.434 0 01-.322.543l-2.71 2.742a3.29 3.29 0 01-1.074.729 3.229 3.229 0 01-1.266.25zM4.742 1.41L1.964 4.146a1.81 1.81 0 00-.481.782 1.844 1.844 0 00-.04.923 21.95 21.95 0 005.842 10.84 22.002 22.002 0 0010.863 5.846 1.89 1.89 0 001.737-.526l2.709-2.742-5.064-3.345-2.32 1.889a.688.688 0 01-.64.12 13.905 13.905 0 01-5.11-3.373 13.864 13.864 0 01-3.383-5.115.726.726 0 01.167-.675l1.875-2.294-3.376-5.065z" fill="#D44B4B"/></svg>