<svg width="27" height="31" fill="none" xmlns="http://www.w3.org/2000/svg"><path d="M19.647 30.354a3.76 3.76 0 01-.8-.18A27.442 27.442 0 016.17 21.458 27.438 27.438 0 01.347 7.197 3.9 3.9 0 01.649 5.29a3.83 3.83 0 011.178-1.52L5.416.934A1.596 1.596 0 016.712.623a1.639 1.639 0 011.097.849l3.383 6.564a1.356 1.356 0 01-.26 1.565l-2.305 2.264a15.787 15.787 0 002.846 5.248 15.68 15.68 0 004.549 3.925l2.743-1.771a1.313 1.313 0 011.518.065l5.676 4.71c.196.15.356.345.467.569a1.69 1.69 0 01.029 1.451 1.673 1.673 0 01-.445.592l-3.508 2.854a3.856 3.856 0 01-1.346.714c-.49.145-1.003.19-1.51.132zM6.404 2.25L2.815 5.086c-.288.22-.516.514-.66.85a2.163 2.163 0 00-.164 1.072 25.754 25.754 0 005.435 13.387 25.816 25.816 0 0011.929 8.2 2.18 2.18 0 001.093.073 2.233 2.233 0 001-.465l3.508-2.854-5.481-4.546-2.947 1.909a.808.808 0 01-.76.06 16.316 16.316 0 01-5.535-4.586 16.268 16.268 0 01-3.295-6.396.852.852 0 01.28-.766l2.48-2.438L6.404 2.25z" fill="#D44B4B"/></svg>