<svg width="19" height="24" fill="none" xmlns="http://www.w3.org/2000/svg"><circle cx="9.5" cy="14.5" r="9" fill="#fff" stroke="#A8D0FB"/><path d="M8.969 17.225v-.356c0-.364.034-.677.102-.936.069-.265.187-.51.356-.739a4.63 4.63 0 01.718-.724c.355-.296.635-.547.84-.752.21-.21.36-.42.452-.63.09-.209.136-.462.136-.758 0-.474-.152-.836-.458-1.087-.305-.255-.736-.383-1.292-.383-.45 0-.852.057-1.203.171-.35.114-.688.25-1.012.41l-.396-.916c.374-.196.78-.355 1.217-.478a5.398 5.398 0 011.463-.185c.88 0 1.56.22 2.043.657.484.432.725 1.03.725 1.79 0 .424-.068.787-.205 1.088-.137.296-.33.57-.581.82-.25.246-.547.508-.889.786-.3.255-.53.48-.69.677-.16.191-.269.39-.328.594-.06.2-.09.442-.09.725v.226H8.97zm-.301 2.064c0-.319.075-.545.226-.677a.83.83 0 01.58-.205c.224 0 .413.069.568.205.16.133.24.358.24.677 0 .314-.08.545-.24.69a.811.811 0 01-.567.212.814.814 0 01-.581-.211c-.15-.146-.226-.377-.226-.69z" fill="#A8D0FB"/></svg>