<svg width="71" height="152" fill="none" xmlns="http://www.w3.org/2000/svg"><path d="M53.922 14.117l.392-.31-.392.31zM.113 151.441l5.764-.328-3.166-4.828-2.598 5.156zM36.76.371a.5.5 0 10-.504.864l.504-.863zm16.77 14.057c5.13 6.467 7.42 11.599 7.752 15.713.328 4.077-1.265 7.221-4.086 9.763-2.841 2.56-6.923 4.5-11.525 6.103-4.596 1.6-9.658 2.849-14.439 4.055-4.763 1.202-9.263 2.366-12.675 3.794-1.708.715-3.172 1.508-4.27 2.426-1.102.92-1.862 1.99-2.098 3.255-.235 1.265.07 2.642.931 4.146.86 1.5 2.289 3.155 4.356 5.005 4.135 3.7 10.91 8.252 21.076 13.964l.49-.872c-10.149-5.702-16.847-10.212-20.899-13.838-2.026-1.812-3.37-3.385-4.155-4.756-.783-1.366-.995-2.501-.816-3.466.18-.967.77-1.846 1.755-2.67.99-.828 2.352-1.575 4.016-2.271 3.33-1.394 7.751-2.54 12.534-3.747C36.243 49.829 41.353 48.57 46 46.95c4.642-1.617 8.874-3.609 11.866-6.304 3.011-2.713 4.77-6.148 4.412-10.586-.354-4.402-2.783-9.722-7.964-16.255l-.784.622zM38.552 82.652c9.545 5.363 16.52 10.212 21.376 14.61 4.862 4.401 7.571 8.324 8.644 11.829 1.065 3.481.528 6.591-1.195 9.433-1.736 2.862-4.686 5.466-8.467 7.867-7.563 4.803-18.282 8.692-28.685 12.208-10.363 3.502-20.438 6.64-26.587 9.935l.472.881c6.053-3.243 16.007-6.345 26.435-9.869 10.388-3.51 21.22-7.433 28.901-12.311 3.842-2.44 6.937-5.144 8.786-8.193 1.861-3.069 2.45-6.472 1.296-10.244-1.147-3.747-4-7.815-8.928-12.278-4.933-4.466-11.977-9.356-21.559-14.74l-.49.872zm15.762-68.846c-1.853-2.336-5.023-4.98-8.315-7.382A113.886 113.886 0 0036.76.372l-.504.863a113.1 113.1 0 019.154 5.996c3.28 2.395 6.356 4.972 8.12 7.197l.784-.622z" fill="#475658"/></svg>