<svg width="55" height="122" viewBox="0 0 55 122" fill="none" xmlns="http://www.w3.org/2000/svg">
<path d="M24.4649 7.88839L24.7753 7.49642L24.4649 7.88839ZM8.06564 121.833L13.6388 120.325L9.54651 116.253L8.06564 121.833ZM9.00494 0.399146C8.74096 0.318101 8.46126 0.466402 8.38021 0.730383C8.29917 0.994365 8.44747 1.27406 8.71145 1.35511L9.00494 0.399146ZM24.1544 8.28037C29.1982 12.2746 31.8348 15.7487 32.8103 18.7857C33.7744 21.7872 33.1358 24.4255 31.4613 26.837C29.7712 29.2711 27.0302 31.4631 23.8232 33.4992C20.621 35.5323 17.0021 37.3812 13.5833 39.151C10.1798 40.9129 6.96015 42.6033 4.61389 44.3033C3.43965 45.1541 2.45837 46.0252 1.77821 46.9308C1.0956 47.8397 0.695289 48.8125 0.743322 49.8487C0.791404 50.8861 1.28482 51.9018 2.21971 52.9035C3.15131 53.9017 4.54341 54.9112 6.44964 55.951C10.2623 58.0307 16.2317 60.2848 24.9766 62.8127L25.2543 61.8521C16.5284 59.3296 10.6434 57.0995 6.92851 55.0731C5.07092 54.0598 3.78089 53.1107 2.95079 52.2212C2.12399 51.3353 1.77617 50.5343 1.74225 49.8024C1.70827 49.0694 1.98518 48.3204 2.57781 47.5313C3.17287 46.739 4.06484 45.936 5.20062 45.1131C7.47441 43.4656 10.622 41.81 14.043 40.0391C17.4488 38.276 21.1118 36.4052 24.3592 34.3434C27.6018 32.2847 30.4779 30.0067 32.2827 27.4074C34.1032 24.7855 34.8375 21.8269 33.7624 18.4799C32.6988 15.1685 29.8843 11.5424 24.7753 7.49642L24.1544 8.28037ZM24.9766 62.8127C33.0596 65.1493 39.1532 67.5496 43.602 69.9822C48.0553 72.4174 50.8248 74.8657 52.3075 77.2802C53.7775 79.674 54.0016 82.0639 53.3049 84.4614C52.6016 86.8814 50.9519 89.3329 48.6273 91.7904C43.9758 96.7082 36.76 101.511 29.5765 106.002C22.427 110.472 15.2924 114.642 10.9229 118.256L11.5603 119.027C15.8622 115.468 22.9003 111.355 30.1066 106.85C37.2789 102.366 44.6019 97.5015 49.3538 92.4776C51.731 89.9643 53.4992 87.3763 54.2652 84.7405C55.0377 82.0821 54.7825 79.3997 53.1597 76.7569C51.5496 74.135 48.6129 71.5825 44.0817 69.1048C39.546 66.6247 33.377 64.2001 25.2543 61.8521L24.9766 62.8127ZM24.7753 7.49642C22.938 6.04148 20.0468 4.59381 17.1155 3.35406C14.1731 2.10959 11.1457 1.05638 9.00494 0.399146L8.71145 1.35511C10.8244 2.00379 13.8192 3.04567 16.726 4.27507C19.644 5.5092 22.4293 6.9142 24.1544 8.28037L24.7753 7.49642Z" fill="#475658"/>
</svg>
